<svg xmlns="http://www.w3.org/2000/svg" xmlns:xlink="http://www.w3.org/1999/xlink" fill="none" version="1.1" width="60" height="54" viewBox="0 0 60 54"><defs><clipPath id="master_svg0_12_21315"><rect x="0" y="0" width="60" height="54" rx="0"/></clipPath></defs><g clip-path="url(#master_svg0_12_21315)"><g><path d="M29.999996533203124,28.3185L40.607496533203125,37.863L37.069996533203124,41.0467L32.499996533203124,36.9338L32.499996533203124,49.5L27.499996533203124,49.5L27.499996533203124,36.9292L22.929996533203123,41.0467L19.392496533203126,37.863L29.999996533203124,28.3185ZM29.999996533203124,4.5C38.885496533203124,4.500378191,46.36079653320313,10.49283,47.38499653320312,18.436500000000002C53.80489653320313,20.0122,58.049896533203125,25.4992,57.464096533203126,31.4649C56.87829653320313,37.4305,51.629996533203126,42.1626,45.00249653320312,42.7005L44.999996533203124,38.25C45.008196533203126,30.8876,38.460396533203124,24.8769,30.281296533203125,24.7388C22.102296533203123,24.6007,15.308596533203126,30.3862,15.009996533203125,37.7437L14.999996533203126,38.25L14.999996533203126,42.7005C8.372256533203124,42.1634,3.123091533203125,37.4317,2.536689233203125,31.4659C1.950286533203125,25.5,6.194956533203126,20.0125,12.614996533203126,18.436500000000002C13.637396533203125,10.49296,21.113296533203126,4.499999731779,29.999996533203124,4.5Z" fill="currentColor" fill-opacity="1"/></g></g></svg>